<svg xmlns="http://www.w3.org/2000/svg" width="199" height="28" viewBox="0 0 199 28" fill="none"><g clip-path="url(#clip0_20_11)"><path d="M88.1433 21.6956L83.5436 8.76981H78.8013L74.1302 21.5547L69.6018 8.76981H64.9665H64.3603H58.3343L50.2046 16.3421V1.5849H44.6422V27.7182H50.2046V22.9283L52.9145 20.322L58.9405 27.7182H65.6796L56.9794 16.8L64.5386 9.22767L71.2777 27.7182H76.6619L81.0833 15.9195L85.3978 27.7182H90.7463L97.6993 8.76981H92.7787L88.1433 21.6956Z" fill="#21254E"></path><path d="M105.686 8.76981H100.124V27.7182H105.686V8.76981Z" fill="#21254E"></path><path d="M102.905 0C101.871 0 101.015 0.281761 100.374 0.880503C99.7317 1.47925 99.4108 2.18365 99.4108 3.06415C99.4108 3.94465 99.7317 4.64906 100.374 5.2478C101.015 5.84654 101.871 6.1283 102.905 6.1283C103.939 6.1283 104.795 5.84654 105.437 5.2478C106.079 4.64906 106.4 3.90943 106.4 2.99371C106.4 2.07799 106.079 1.40881 105.401 0.845283C104.724 0.281761 103.904 0 102.87 0H102.905Z" fill="#21254E"></path><path d="M117.382 13.6654C118.131 13.2428 118.986 13.0667 119.913 13.0667C120.84 13.0667 121.589 13.278 122.338 13.6654C123.087 14.0881 123.693 14.722 124.228 15.6378L128.507 13.3132C127.829 11.7988 126.759 10.6013 125.226 9.79121C123.729 8.94593 121.946 8.52328 119.949 8.52328C117.952 8.52328 116.027 8.94593 114.458 9.79121C112.853 10.6365 111.605 11.7988 110.678 13.2428C109.751 14.6868 109.323 16.3774 109.323 18.2793C109.323 20.1811 109.787 21.8365 110.678 23.3157C111.57 24.795 112.853 25.9572 114.458 26.8025C116.062 27.6478 117.881 28.0352 119.949 28.0352C122.017 28.0352 123.729 27.6126 125.226 26.7673C126.724 25.922 127.829 24.7598 128.507 23.2453L124.228 20.9208C123.693 21.8365 123.087 22.5057 122.338 22.8931C121.589 23.3157 120.805 23.4918 119.913 23.4918C118.986 23.4918 118.131 23.2805 117.382 22.8931C116.633 22.4705 116.027 21.8717 115.563 21.0969C115.1 20.322 114.886 19.3711 114.886 18.2793C114.886 17.1874 115.1 16.2365 115.563 15.4616C116.027 14.6868 116.633 14.0881 117.382 13.7006V13.6654Z" fill="#21254E"></path><path d="M151.755 8.76981H145.123L136.993 16.3421V1.5849H131.431V27.7182H136.993V22.9283L139.703 20.322L145.729 27.7182H152.468L143.768 16.8L151.755 8.76981Z" fill="#21254E"></path><path d="M171.009 9.68553C169.583 8.87547 167.943 8.48805 166.089 8.48805C164.484 8.48805 163.094 8.84025 161.881 9.54465C161.311 9.86163 160.812 10.3195 160.348 10.8126V1.5849H154.786V27.7182H160.098V25.4994C160.598 26.0981 161.133 26.5912 161.774 26.9434C162.987 27.6478 164.449 27.9648 166.089 27.9648C167.907 27.9648 169.548 27.5421 171.009 26.7673C172.436 25.9572 173.577 24.8302 174.432 23.3862C175.288 21.9421 175.716 20.2163 175.716 18.244C175.716 16.2717 175.288 14.5459 174.432 13.1019C173.577 11.6579 172.436 10.4956 171.009 9.68553ZM169.405 21.0616C168.977 21.8717 168.371 22.4704 167.658 22.8579C166.945 23.2805 166.089 23.4566 165.162 23.4566C164.235 23.4566 163.415 23.2453 162.666 22.8579C161.917 22.4352 161.346 21.8365 160.883 21.0616C160.455 20.2516 160.241 19.3358 160.241 18.244C160.241 17.1522 160.455 16.2013 160.883 15.4264C161.311 14.6516 161.917 14.0528 162.666 13.6654C163.415 13.2428 164.235 13.0667 165.162 13.0667C166.089 13.0667 166.909 13.278 167.658 13.6654C168.371 14.088 168.977 14.6868 169.405 15.4264C169.833 16.2013 170.047 17.1522 170.047 18.244C170.047 19.3358 169.833 20.2516 169.405 21.0616Z" fill="#39BFF0"></path><path d="M184.773 8.76981H179.211V27.7182H184.773V8.76981Z" fill="#39BFF0"></path><path d="M181.992 0C180.958 0 180.102 0.281761 179.46 0.880503C178.818 1.47925 178.497 2.18365 178.497 3.06415C178.497 3.94465 178.818 4.64906 179.46 5.2478C180.102 5.84654 180.958 6.1283 181.992 6.1283C183.026 6.1283 183.882 5.84654 184.523 5.2478C185.165 4.64906 185.486 3.90943 185.486 2.99371C185.486 2.07799 185.165 1.40881 184.488 0.845283C183.81 0.281761 182.99 0 181.956 0H181.992Z" fill="#39BFF0"></path><path d="M196.04 9.19245V4.57861H190.442V9.19245H187.483V13.4189H190.442V27.7182H196.04V13.4189H199V9.19245H196.04Z" fill="#39BFF0"></path><path d="M10.0552 24.0906L19.1476 15.1094C20.0391 14.2289 21.4653 14.2289 22.3568 15.1094L31.4492 24.0906C32.8755 25.4994 31.8771 27.8943 29.8447 27.8943H11.6597C9.66297 27.8943 8.62892 25.4994 10.0552 24.0906Z" fill="#39BFF0"></path><path d="M14.8688 0.105652H25.8154C27.8835 0.105652 28.9532 2.60628 27.4557 4.05031L16.5091 14.8629C15.0471 16.3069 12.5155 15.2855 12.5155 13.2428V2.43018C12.5155 1.16226 13.5495 0.105652 14.8688 0.105652Z" fill="#39BFF0"></path><path d="M8.27235 0.105652H2.35334C1.03404 0.105652 0 1.12704 0 2.39496V25.5698C0 27.6126 2.49597 28.634 3.99355 27.1899L9.94822 21.3082C10.3761 20.8855 10.6257 20.2868 10.6257 19.688V2.39496C10.6257 1.12704 9.55599 0.105652 8.27235 0.105652Z" fill="#21254E"></path></g><defs><clipPath id="clip0_20_11"><rect width="199" height="28" fill="white"></rect></clipPath></defs></svg>